<?xml version="1.0" encoding="utf-8"?>
<!-- Generator: Adobe Illustrator 19.0.0, SVG Export Plug-In . SVG Version: 6.00 Build 0)  -->
<svg version="1.1" id="Calque_1" xmlns="http://www.w3.org/2000/svg" xmlns:xlink="http://www.w3.org/1999/xlink" x="0px" y="0px"
	 width="519.2px" height="174.2px" viewBox="-37 211.1 519.2 174.2" style="enable-background:new -37 211.1 519.2 174.2;"
	 xml:space="preserve">
<style type="text/css">
	.st0{fill:#00CCBC;}
</style>
<g id="XMLID_88_">
</g>
<g id="XMLID_89_">
</g>
<g id="XMLID_90_">
</g>
<g id="XMLID_91_">
</g>
<g id="XMLID_92_">
</g>
<g id="XMLID_93_">
</g>
<g id="XMLID_94_">
</g>
<g id="XMLID_95_">
</g>
<g id="XMLID_96_">
</g>
<g id="XMLID_97_">
</g>
<g id="XMLID_98_">
</g>
<g id="XMLID_99_">
</g>
<g id="XMLID_100_">
</g>
<g id="XMLID_101_">
</g>
<g id="XMLID_102_">
</g>
<path class="st0" d="M156.5,330.9h11.2l-1.9-8.7v-51.7h-10.7v23.6c-3.2-3.7-7.7-5.9-12.9-5.9c-10.7,0-19,8.9-19,21.8
	c0,13,8.3,21.8,19,21.8c5.3,0,9.9-2.3,13.1-6.2L156.5,330.9L156.5,330.9z M368.1,299.8c2.2,0,4.2,0.6,6,1.9l5.1-11.4
	c-2.4-1.5-5.1-2.1-7.8-2.1c-4.8,0-8.9,2.2-11.4,6.3l-1.1-5.3h-11l1.8,8.2v33.6h10.7v-26.7C361.8,301.5,364.5,299.8,368.1,299.8
	L368.1,299.8L368.1,299.8L368.1,299.8z M399.4,320.6c-6.2,0-10.8-4.1-10.8-10.5c0-6.5,4.6-10.5,10.8-10.5c6.3,0,10.8,4,10.8,10.5
	C410.2,316.4,405.7,320.6,399.4,320.6L399.4,320.6z M133.6,310c0-6.5,4.6-10.5,10.8-10.5c6.3,0,10.8,4,10.8,10.5
	c0,6.4-4.5,10.5-10.8,10.5C138.2,320.6,133.6,316.4,133.6,310z M446.9,320.6c-6.2,0-10.8-4.1-10.8-10.5c0-6.5,4.6-10.5,10.8-10.5
	c6.3,0,10.8,4,10.8,10.5C457.6,316.4,453.1,320.6,446.9,320.6z M193.7,298.9c5.5,0,9.1,2.6,10.3,7.4h-20.6
	C184.5,301.4,188.2,298.9,193.7,298.9L193.7,298.9z M321.6,298.9c5.5,0,9.1,2.6,10.3,7.4h-20.6C312.6,301.4,316.2,298.9,321.6,298.9
	L321.6,298.9z M269.4,330.9h17.2l11.2-41.9h-11.7L278,323l-8.2-33.9h-11.5L269.4,330.9L269.4,330.9z M241.9,330.9h10.7V289h-10.7
	V330.9z M195.3,331.7c6,0,11.8-1.7,16.7-4.8l-4.1-9.2c-3.8,2.1-8.2,3.2-12.5,3.2c-5.6,0-9.5-2.2-11.3-6.3h30.2
	c0.3-1.6,0.5-3,0.5-4.9c0-13-9-21.6-20.9-21.6c-12.1,0-20.9,8.8-20.9,21.8C172.9,323.2,181.7,331.7,195.3,331.7L195.3,331.7z
	 M468,310c0-13-9-21.8-21.1-21.8c-12.2,0-21.1,8.9-21.1,21.8s9,21.8,21.1,21.8S468,323,468,310L468,310z M323.1,331.8
	c6,0,11.8-1.6,16.7-4.8l-4.1-9.2c-3.8,2.1-8.2,3.2-12.5,3.2c-5.6,0-9.5-2.2-11.3-6.3h30.2c0.3-1.6,0.5-3,0.5-4.9
	c0-13-9-21.6-20.9-21.6c-12.1,0-20.9,8.8-20.9,21.8C300.8,323.4,309.5,331.8,323.1,331.8L323.1,331.8L323.1,331.8z M399.4,331.8
	c12.2,0,21.1-8.9,21.1-21.8s-9-21.8-21.1-21.8c-12.2,0-21.1,8.9-21.1,21.8S387.2,331.8,399.4,331.8L399.4,331.8z M221.6,330.9h10.7
	v-60.4h-10.7V330.9L221.6,330.9z M247.3,283.3c3.7,0,6.7-3,6.7-6.8s-2.9-6.8-6.7-6.8c-3.8,0-6.8,3-6.8,6.8S243.4,283.3,247.3,283.3
	L247.3,283.3z M63.4,232.4l-6.1,58l-10.4-48.9l-32.8,6.9l10.3,48.9l-47.2,10l8.4,39L68.7,364l19-42.5l9-85.6L63.4,232.4L63.4,232.4
	L63.4,232.4z M37.1,316.6c-1.7,1.6-3.9,1.4-6.4,0.6c-2.4-0.8-3.4-3.6-2.6-7.2c0.7-2.6,3.8-3,5.5-3c0.6,0,1.2,0.1,1.8,0.4
	c1.1,0.5,3,1.6,3.4,3.2C39.4,313,38.8,315,37.1,316.6L37.1,316.6L37.1,316.6L37.1,316.6z M61.2,319.2c-1.3,2.2-4.5,2.5-7.8,0.9
	c-2.2-1.1-2.2-3.7-1.9-5.4c0.1-0.9,0.5-1.8,1.1-2.5c0.8-1,2.1-2.3,3.5-2.3c2.5-0.1,4.5,1,5.7,3C63,314.9,62.4,317.1,61.2,319.2
	L61.2,319.2L61.2,319.2z"/>
</svg>
